<?xml version="1.0" encoding="UTF-8"?>
<svg width="226px" height="43px" viewBox="0 0 226 43" version="1.1" xmlns="http://www.w3.org/2000/svg" xmlns:xlink="http://www.w3.org/1999/xlink">
    <!-- Generator: Sketch 51.2 (57519) - http://www.bohemiancoding.com/sketch -->
    <title>Simple 2</title>
    <desc>Created with Sketch.</desc>
    <defs></defs>
    <g id="Simple-2" stroke="none" stroke-width="1" fill="none" fill-rule="evenodd">
        <path d="M20.1577351,0 L37.5409505,0 L37.7674419,0.227513228 L37.7674419,2.73015873 L37.5409505,2.95767196 L24.1213347,2.95767196 C18.3646493,2.95767196 14.2500966,3.90563426 11.7775531,5.8015873 C8.17254686,7.75441894 5.49242536,11.2808387 3.73710819,16.3809524 C3.35962063,17.4806051 3.0953833,19.1869373 2.94438827,21.5 C2.94438827,27.396414 5.5112652,32.4016549 10.6450961,36.515873 C13.589499,38.8668548 17.9682891,40.042328 23.7815976,40.042328 L37.5409505,40.042328 L37.7674419,40.2698413 L37.7674419,42.7724868 L37.5409505,43 L20.1577351,43 C16.5149801,43 12.6269165,41.5590973 8.4934277,38.6772487 C4.81292396,35.8901977 2.20829885,32.06043 0.679474216,27.1878307 C0.226489141,25.0833228 0,23.6045016 0,22.7513228 L0,20.2486772 C0,16.3619735 1.62317217,12.1909394 4.86956522,7.73544974 C8.43682269,4.00042224 11.683167,1.8011497 14.6086957,1.13756614 C16.6848772,0.379184921 18.5345386,0 20.1577351,0 Z" id="Path" fill="#FF5E00"></path>
        <path d="M20.8372093,4.89153439 L37.5409505,4.89153439 L37.7674419,5.11904762 L37.7674419,7.73544974 L37.5409505,7.96296296 L20.950455,7.96296296 C16.458353,7.96296296 12.7590304,10.0863985 9.85237614,14.3333333 C8.49342091,16.5705579 7.81395349,18.8456674 7.81395349,21.1587302 L7.81395349,21.8412698 C7.81395349,26.2209214 9.89010394,29.9369336 14.0424671,32.989418 C16.4206388,34.3545042 18.7232784,35.037037 20.950455,35.037037 L37.5409505,35.037037 L37.7674419,35.2645503 L37.7674419,37.8809524 L37.5409505,38.1084656 L20.6107179,38.1084656 C16.1374903,38.1084656 12.0606857,36.0229485 8.380182,31.8518519 C5.9642616,28.6666507 4.75631951,25.3677419 4.75631951,21.9550265 L4.75631951,21.0449735 C4.75631951,15.6415074 7.36094463,11.0912883 12.570273,7.39417989 C15.3825553,5.72574122 18.1381732,4.89153439 20.8372093,4.89153439 Z" id="Path" fill="#FFFFFF"></path>
        <path d="M57.1698686,8.19047619 L58.7553084,8.19047619 C63.8136417,8.19047619 68.3434246,10.6930967 72.3447927,15.6984127 C74.307728,18.9594519 75.289181,21.9929313 75.289181,24.7989418 L75.289181,42.7724868 L75.0626896,43 L72.231547,43 L72.0050556,42.7724868 L72.0050556,25.2539683 C72.0050556,20.4382475 69.6646678,16.4568059 64.983822,13.3095238 C62.6433992,12.0961139 60.4162559,11.489418 58.3023256,11.489418 L57.6228514,11.489418 C52.8287593,11.489418 48.8651994,13.8403645 45.7320526,18.542328 C44.5240924,20.8933098 43.9201213,23.1305008 43.9201213,25.2539683 L43.9201213,25.9365079 C43.9201213,30.7711882 46.2982573,34.7905484 51.0546006,37.994709 C53.4893954,39.1322808 55.6787904,39.7010582 57.6228514,39.7010582 L57.8493428,39.9285714 L57.8493428,42.7724868 L57.6228514,43 L57.1698686,43 C53.3194954,43 49.5824246,41.4074233 45.958544,38.2222222 C42.4101609,34.4871947 40.635996,30.5436716 40.635996,26.3915344 L40.635996,24.7989418 C40.635996,19.7177876 43.1273765,15.1675686 48.1102123,11.1481481 C51.3566054,9.17635698 54.3764606,8.19047619 57.1698686,8.19047619 Z" id="Path" fill="#0ABC87"></path>
        <path d="M58.0758342,13.3095238 C62.8888006,13.3095238 66.6258714,15.8121443 69.2871587,20.8174603 C69.8911388,22.5238181 70.1931244,24.3059872 70.1931244,26.1640212 L70.1931244,42.7724868 L69.966633,43 L67.1354904,43 L66.908999,42.7724868 L66.908999,27.1878307 C66.908999,22.6185839 65.512316,19.5851045 62.718908,18.0873016 C61.2655809,17.101406 59.6801569,16.6084656 57.9625885,16.6084656 C54.0367178,16.6084656 51.2056036,18.6939827 49.4691608,22.8650794 L49.016178,25.5952381 C49.016178,29.5388204 51.0923284,32.3827073 55.2446916,34.1269841 L57.7360971,34.5820106 L57.8493428,34.6957672 L57.8493428,37.6534392 L57.6228514,37.8809524 C53.8857245,37.8809524 50.6393801,36.0987833 47.8837209,32.5343915 C46.4492682,30.3730051 45.7320526,28.0220586 45.7320526,25.4814815 C45.7320526,20.6468012 48.2234331,16.8928705 53.206269,14.2195767 C54.9993349,13.6128717 56.6225071,13.3095238 58.0758342,13.3095238 Z" id="Path" fill="#FFFFFF"></path>
        <path d="M95.3053589,9.44179894 L97.2305359,9.44179894 L97.4570273,9.66931217 L97.4570273,12.5132275 L97.2305359,12.7407407 L95.9848332,12.7407407 C91.7758468,12.7407407 88.1520206,14.5608284 85.1132457,18.2010582 C83.1503104,20.874352 82.1688574,23.6803204 82.1688574,26.6190476 L82.1688574,42.7724868 L81.942366,43 L79.1112235,43 L78.8847321,42.7724868 L78.8847321,25.9365079 C78.8847321,21.613735 80.8476379,17.5564563 84.7735086,13.7645503 C88.2841429,10.8827016 91.7947246,9.44179894 95.3053589,9.44179894 Z" id="Path" fill="#0A9BDF"></path>
        <path d="M97.2305359,14.5608466 L97.4570273,14.9021164 L97.4570273,17.7460317 L97.2305359,17.973545 L95.9848332,17.973545 C92.1722088,17.973545 89.4165909,20.059062 87.7178969,24.2301587 C87.4914043,25.026459 87.3781598,25.8227473 87.3781598,26.6190476 L87.3781598,42.7724868 L87.1516684,43 L84.2072801,43 L83.9807887,42.7724868 L83.9807887,27.8703704 C83.9807887,21.5378872 86.8496511,17.2910161 92.5874621,15.1296296 C93.8142967,14.750439 95.3619725,14.5608466 97.2305359,14.5608466 Z" id="Path" fill="#FFFFFF"></path>
        <path d="M120.982811,0 L138.366026,0 L138.592518,0.227513228 L138.592518,2.73015873 L138.366026,2.95767196 L124.946411,2.95767196 C119.189725,2.95767196 115.075172,3.90563426 112.602629,5.8015873 C108.997623,7.75441894 106.317501,11.2808387 104.562184,16.3809524 C104.184696,17.4806051 103.920459,19.1869373 103.769464,21.5 C103.769464,27.396414 106.336341,32.4016549 111.470172,36.515873 C114.414575,38.8668548 118.793365,40.042328 124.606673,40.042328 L138.366026,40.042328 L138.592518,40.2698413 L138.592518,42.7724868 L138.366026,43 L120.982811,43 C117.340056,43 113.451992,41.5590973 109.318504,38.6772487 C105.638,35.8901977 103.033375,32.06043 101.50455,27.1878307 C101.051565,25.0833228 100.825076,23.6045016 100.825076,22.7513228 L100.825076,20.2486772 C100.825076,16.3619735 102.448248,12.1909394 105.694641,7.73544974 C109.261899,4.00042224 112.508243,1.8011497 115.433771,1.13756614 C117.509953,0.379184921 119.359614,0 120.982811,0 Z" id="Path" fill="#FF5E00"></path>
        <path d="M121.662285,4.89153439 L138.366026,4.89153439 L138.592518,5.11904762 L138.592518,7.73544974 L138.366026,7.96296296 L121.775531,7.96296296 C117.283429,7.96296296 113.584106,10.0863985 110.677452,14.3333333 C109.318497,16.5705579 108.639029,18.8456674 108.639029,21.1587302 L108.639029,21.8412698 C108.639029,26.2209214 110.71518,29.9369336 114.867543,32.989418 C117.245715,34.3545042 119.548354,35.037037 121.775531,35.037037 L138.366026,35.037037 L138.592518,35.2645503 L138.592518,37.8809524 L138.366026,38.1084656 L121.435794,38.1084656 C116.962566,38.1084656 112.885762,36.0229485 109.205258,31.8518519 C106.789337,28.6666507 105.581395,25.3677419 105.581395,21.9550265 L105.581395,21.0449735 C105.581395,15.6415074 108.18602,11.0912883 113.395349,7.39417989 C116.207631,5.72574122 118.963249,4.89153439 121.662285,4.89153439 Z" id="Path" fill="#FFFFFF"></path>
        <path d="M157.994944,8.19047619 L159.580384,8.19047619 C164.638718,8.19047619 169.1685,10.6930967 173.169869,15.6984127 C175.132804,18.9594519 176.114257,21.9929313 176.114257,24.7989418 L176.114257,42.7724868 L175.887765,43 L173.056623,43 L172.830131,42.7724868 L172.830131,25.2539683 C172.830131,20.4382475 170.489744,16.4568059 165.808898,13.3095238 C163.468475,12.0961139 161.241332,11.489418 159.127401,11.489418 L158.447927,11.489418 C153.653835,11.489418 149.690275,13.8403645 146.557128,18.542328 C145.349168,20.8933098 144.745197,23.1305008 144.745197,25.2539683 L144.745197,25.9365079 C144.745197,30.7711882 147.123333,34.7905484 151.879676,37.994709 C154.314471,39.1322808 156.503866,39.7010582 158.447927,39.7010582 L158.674419,39.9285714 L158.674419,42.7724868 L158.447927,43 L157.994944,43 C154.144571,43 150.4075,41.4074233 146.78362,38.2222222 C143.235237,34.4871947 141.461072,30.5436716 141.461072,26.3915344 L141.461072,24.7989418 C141.461072,19.7177876 143.952452,15.1675686 148.935288,11.1481481 C152.181681,9.17635698 155.201536,8.19047619 157.994944,8.19047619 Z" id="Path" fill="#FFFFFF"></path>
        <path d="M158.90091,13.3095238 C163.713876,13.3095238 167.450947,15.8121443 170.112235,20.8174603 C170.716215,22.5238181 171.0182,24.3059872 171.0182,26.1640212 L171.0182,42.7724868 L170.791709,43 L167.960566,43 L167.734075,42.7724868 L167.734075,27.1878307 C167.734075,22.6185839 166.337392,19.5851045 163.543984,18.0873016 C162.090657,17.101406 160.505233,16.6084656 158.787664,16.6084656 C154.861794,16.6084656 152.030679,18.6939827 150.294237,22.8650794 L149.841254,25.5952381 C149.841254,29.5388204 151.917404,32.3827073 156.069767,34.1269841 L158.561173,34.5820106 L158.674419,34.6957672 L158.674419,37.6534392 L158.447927,37.8809524 C154.7108,37.8809524 151.464456,36.0987833 148.708797,32.5343915 C147.274344,30.3730051 146.557128,28.0220586 146.557128,25.4814815 C146.557128,20.6468012 149.048509,16.8928705 154.031345,14.2195767 C155.824411,13.6128717 157.447583,13.3095238 158.90091,13.3095238 Z" id="Path" fill="#FFFFFF"></path>
        <path d="M158.90091,18.3148148 C161.864187,18.3148148 164.129079,19.9832285 165.695652,23.3201058 C165.922145,24.2491228 166.035389,25.2729221 166.035389,26.3915344 L166.035389,42.7724868 L165.808898,43 L162.86451,43 L162.638018,42.7724868 L162.638018,25.1402116 C162.071787,22.865068 160.939341,21.7275132 159.240647,21.7275132 L158.334681,21.7275132 C156.069756,22.2962991 154.93731,23.4338539 154.93731,25.1402116 L154.93731,26.0502646 C154.93731,27.5859865 155.956512,28.7235413 157.994944,29.462963 C158.447929,29.462963 158.674419,29.5387999 158.674419,29.6904762 L158.674419,32.6481481 L158.561173,32.7619048 L158.561173,32.8756614 C155.937634,32.8756614 153.823736,31.4347587 152.219414,28.5529101 C151.766428,27.6238931 151.539939,26.6000938 151.539939,25.4814815 C151.539939,22.7323496 152.974371,20.5709955 155.843276,18.9973545 C156.768121,18.5423258 157.787322,18.3148148 158.90091,18.3148148 Z" id="Path" fill="#FFFFFF"></path>
        <path d="M157.994944,8.19047619 L159.580384,8.19047619 C164.638718,8.19047619 169.1685,10.6930967 173.169869,15.6984127 C175.132804,18.9594519 176.114257,21.9929313 176.114257,24.7989418 L176.114257,42.7724868 L175.887765,43 L173.056623,43 L172.830131,42.7724868 L172.830131,25.2539683 C172.830131,20.4382475 170.489744,16.4568059 165.808898,13.3095238 C163.468475,12.0961139 161.241332,11.489418 159.127401,11.489418 L158.447927,11.489418 C153.653835,11.489418 149.690275,13.8403645 146.557128,18.542328 C145.349168,20.8933098 144.745197,23.1305008 144.745197,25.2539683 L144.745197,25.9365079 C144.745197,30.7711882 147.123333,34.7905484 151.879676,37.994709 C154.314471,39.1322808 156.503866,39.7010582 158.447927,39.7010582 L158.674419,39.9285714 L158.674419,42.7724868 L158.447927,43 L157.994944,43 C154.144571,43 150.4075,41.4074233 146.78362,38.2222222 C143.235237,34.4871947 141.461072,30.5436716 141.461072,26.3915344 L141.461072,24.7989418 C141.461072,19.7177876 143.952452,15.1675686 148.935288,11.1481481 C152.181681,9.17635698 155.201536,8.19047619 157.994944,8.19047619 Z" id="Path-Copy-3" fill="#FFFFFF"></path>
        <path d="M158.90091,13.3095238 C163.713876,13.3095238 167.450947,15.8121443 170.112235,20.8174603 C170.716215,22.5238181 171.0182,24.3059872 171.0182,26.1640212 L171.0182,42.7724868 L170.791709,43 L167.960566,43 L167.734075,42.7724868 L167.734075,27.1878307 C167.734075,22.6185839 166.337392,19.5851045 163.543984,18.0873016 C162.090657,17.101406 160.505233,16.6084656 158.787664,16.6084656 C154.861794,16.6084656 152.030679,18.6939827 150.294237,22.8650794 L149.841254,25.5952381 C149.841254,29.5388204 151.917404,32.3827073 156.069767,34.1269841 L158.561173,34.5820106 L158.674419,34.6957672 L158.674419,37.6534392 L158.447927,37.8809524 C154.7108,37.8809524 151.464456,36.0987833 148.708797,32.5343915 C147.274344,30.3730051 146.557128,28.0220586 146.557128,25.4814815 C146.557128,20.6468012 149.048509,16.8928705 154.031345,14.2195767 C155.824411,13.6128717 157.447583,13.3095238 158.90091,13.3095238 Z" id="Path-Copy-2" fill="#FFFFFF"></path>
        <polygon id="Path" fill="#FFFFFF" points="179.794742 0.91005291 182.625885 0.91005291 182.852376 1.13756614 182.852376 42.7724868 182.625885 43 179.794742 43 179.568251 42.7724868 179.568251 1.13756614"></polygon>
        <polygon id="Path" fill="#FFFFFF" points="184.777553 0.91005291 187.608696 0.91005291 187.835187 1.13756614 187.835187 42.7724868 187.608696 43 184.777553 43 184.551062 42.7724868 184.551062 1.13756614"></polygon>
        <path d="M206.993933,8.19047619 L208.692619,8.19047619 C212.92048,8.19047619 216.884039,10.0105638 220.583418,13.6507937 C223.339077,16.9307924 224.811256,19.8884348 225,22.5238095 L224.886754,22.6375661 L221.82912,22.6375661 L220.809909,19.7936508 C218.997969,16.1155019 216.280099,13.6128814 212.656218,12.2857143 C211.089645,11.7548474 209.617466,11.489418 208.239636,11.489418 L207.446916,11.489418 C203.426674,11.489418 199.878344,13.3095056 196.80182,16.9497354 C194.838885,19.6230292 193.857432,22.3531607 193.857432,25.1402116 L193.857432,26.0502646 C193.857432,30.0886445 195.669345,33.6529828 199.293225,36.7433862 C201.954513,38.7151774 204.672382,39.7010582 207.446916,39.7010582 L208.239636,39.7010582 C213.316844,39.7010582 217.393648,37.1605192 220.470172,32.0793651 C220.923157,31.0934695 221.338387,29.9179962 221.715875,28.5529101 L224.773509,28.5529101 C224.924504,28.5529101 225,28.6666655 225,28.8941799 C224.735759,31.6053927 223.074838,34.7147091 220.017189,38.2222222 C216.280062,41.4074233 212.505243,43 208.692619,43 L206.993933,43 C203.14356,43 199.368741,41.3315863 195.669363,37.994709 C192.271975,34.2976006 190.573306,30.4299144 190.573306,26.3915344 L190.573306,24.7989418 C190.573306,19.9073829 192.913694,15.4709194 197.59454,11.489418 C200.973054,9.29011246 204.106153,8.19047619 206.993933,8.19047619 Z" id="Path" fill="#FFFFFF"></path>
        <path d="M208.12639,13.3095238 C212.769487,13.3095238 216.431062,15.7363073 219.111223,20.5899471 L219.790698,22.5238095 L219.677452,22.6375661 L216.506572,22.6375661 L214.46815,19.452381 C212.448591,17.5564279 210.259196,16.6084656 207.899899,16.6084656 C204.143898,16.6084656 201.350532,18.5802272 199.519717,22.5238095 C199.217727,23.471786 199.066734,24.3818299 199.066734,25.2539683 L199.066734,25.9365079 C199.066734,29.6715354 201.105136,32.4016669 205.182002,34.1269841 L207.899899,34.5820106 C211.712523,34.5820106 214.543638,32.5723305 216.393327,28.5529101 L219.564206,28.5529101 L219.677452,28.6666667 L219.790698,28.6666667 C218.677109,32.1173012 216.7897,34.6199217 214.128413,36.1746032 C212.127728,37.312175 210.051578,37.8809524 207.899899,37.8809524 C202.841566,37.8809524 199.066747,35.3024949 196.575329,30.1455026 C195.971349,28.5339426 195.669363,26.9792844 195.669363,25.4814815 C195.669363,20.533044 198.273988,16.7411948 203.483316,14.1058201 C205.200885,13.5749533 206.748561,13.3095238 208.12639,13.3095238 Z" id="Path" fill="#FFFFFF"></path>
    </g>
</svg>