<?xml version="1.0" encoding="UTF-8"?>
<svg width="226px" height="43px" viewBox="0 0 226 43" version="1.1" xmlns="http://www.w3.org/2000/svg" xmlns:xlink="http://www.w3.org/1999/xlink">
    <!-- Generator: Sketch 51.2 (57519) - http://www.bohemiancoding.com/sketch -->
    <title>Simple 3</title>
    <desc>Created with Sketch.</desc>
    <defs></defs>
    <g id="Simple-3" stroke="none" stroke-width="1" fill="none" fill-rule="evenodd">
        <path d="M20.2818591,0 L37.7721139,0 L38,0.227513228 L38,2.73015873 L37.7721139,2.95767196 L24.2698651,2.95767196 C18.4777322,2.95767196 14.3378435,3.90563426 11.850075,5.8015873 C8.22287042,7.75441894 5.52624571,11.2808387 3.76011994,16.3809524 C3.38030795,17.4806051 3.11444354,19.1869373 2.96251874,21.5 C2.96251874,27.396414 5.54520156,32.4016549 10.7106447,36.515873 C13.6731782,38.8668548 18.0789313,40.042328 23.928036,40.042328 L37.7721139,40.042328 L38,40.2698413 L38,42.7724868 L37.7721139,43 L20.2818591,43 C16.6166733,43 12.7046685,41.5590973 8.54572714,38.6772487 C4.84256019,35.8901977 2.22189675,32.06043 0.683658171,27.1878307 C0.227883778,25.0833228 0,23.6045016 0,22.7513228 L0,20.2486772 C0,16.3619735 1.63316708,12.1909394 4.89955022,7.73544974 C8.48877357,4.00042224 11.7551077,1.8011497 14.6986507,1.13756614 C16.7876166,0.379184921 18.6486675,0 20.2818591,0 Z" id="Path" fill="#FF5E00"></path>
        <path d="M21.0754717,5 L37.7735849,5 L38,5.2260274 L38,7.82534247 L37.7735849,8.05136986 L21.1886792,8.05136986 C16.6980908,8.05136986 13.0000145,10.1609378 10.0943396,14.380137 C8.73584226,16.6027508 8.05660377,18.8630022 8.05660377,21.1609589 L8.05660377,21.8390411 C8.05660377,26.1900902 10.1320547,29.8818342 14.2830189,32.9143836 C16.6603892,34.2705547 18.962253,34.9486301 21.1886792,34.9486301 L37.7735849,34.9486301 L38,35.1746575 L38,37.7739726 L37.7735849,38 L20.8490566,38 C16.3773361,38 12.3019052,35.9281029 8.62264151,31.7842466 C6.20753509,28.6198472 5,25.3424827 5,21.9520548 L5,21.0479452 C5,15.6797677 7.60374755,11.1592649 12.8113208,7.48630137 C15.6226556,5.82875884 18.377345,5 21.0754717,5 Z" id="Path" fill="#FFFFFF"></path>
        <path d="M57.6993464,8 L59.3006536,8 C64.4096116,8 68.9847292,10.5163147 73.0261438,15.5490196 C75.0087245,18.8279031 76,21.8779815 76,24.6993464 L76,42.7712418 L75.7712418,43 L72.9117647,43 L72.6830065,42.7712418 L72.6830065,25.1568627 C72.6830065,20.3147906 70.3191958,16.3115627 65.5915033,13.1470588 C63.227657,11.9270092 60.9782242,11.3169935 58.8431373,11.3169935 L58.1568627,11.3169935 C53.3147906,11.3169935 49.3115627,13.6808042 46.1470588,18.4084967 C44.9270092,20.772343 44.3169935,23.0217758 44.3169935,25.1568627 L44.3169935,25.8431373 C44.3169935,30.7042727 46.7189302,34.7456266 51.5228758,37.9673203 C53.9820384,39.1111168 56.1933453,39.6830065 58.1568627,39.6830065 L58.3856209,39.9117647 L58.3856209,42.7712418 L58.1568627,43 L57.6993464,43 C53.8104381,43 50.035966,41.3987088 46.375817,38.1960784 C42.7919211,34.440613 41,30.4755111 41,26.3006536 L41,24.6993464 C41,19.5903884 43.5163147,15.0152708 48.5490196,10.9738562 C51.8279031,8.99127549 54.8779815,8 57.6993464,8 Z" id="Path" fill="#0ABC87"></path>
        <path d="M58.1111111,13 C62.8333569,13 66.4999869,15.5287103 69.1111111,20.5862069 C69.7037067,22.3103534 70,24.1111017 70,25.9885057 L70,42.7701149 L69.7777778,43 L67,43 L66.7777778,42.7701149 L66.7777778,27.0229885 C66.7777778,22.4061072 65.4074211,19.3410037 62.6666667,17.8275862 C61.2407336,16.8314126 59.6851936,16.3333333 58,16.3333333 C54.1481289,16.3333333 51.3703789,18.440592 49.6666667,22.6551724 L49.2222222,25.4137931 C49.2222222,29.3984874 51.2592389,32.2720218 55.3333333,34.0344828 L57.7777778,34.4942529 L57.8888889,34.6091954 L57.8888889,37.5977011 L57.6666667,37.8275862 C53.9999817,37.8275862 50.8148283,36.0268379 48.1111111,32.4252874 C46.7036967,30.2413684 46,27.8659132 46,25.2988506 C46,20.4137687 48.44442,16.6207032 53.3333333,13.9195402 C55.0926014,13.3065103 56.6851781,13 58.1111111,13 Z" id="Path" fill="#FFFFFF"></path>
        <path d="M95.7987805,9 L97.7682927,9 L98,9.23050847 L98,12.1118644 L97.7682927,12.3423729 L96.4939024,12.3423729 C92.1879866,12.3423729 88.4807066,14.1864222 85.3719512,17.8745763 C83.3638111,20.5830644 82.3597561,23.4259738 82.3597561,26.4033898 L82.3597561,42.7694915 L82.1280488,43 L79.2317073,43 L79,42.7694915 L79,25.7118644 C79,21.3321815 81.00811,17.2214881 85.0243902,13.379661 C88.6158716,10.4598724 92.2072991,9 95.7987805,9 Z" id="Path" fill="#0A9BDF"></path>
        <path d="M96.7815126,15 L97,15.336 L97,18.136 L96.7815126,18.36 L95.5798319,18.36 C91.9019424,18.36 89.2437057,20.4133128 87.605042,24.52 C87.3865535,25.3040039 87.2773109,26.0879961 87.2773109,26.872 L87.2773109,42.776 L87.0588235,43 L84.2184874,43 L84,42.776 L84,28.104 C84,21.8693022 86.7674793,17.6880106 92.302521,15.56 C93.4860003,15.1866648 94.9789826,15 96.7815126,15 Z" id="Path" fill="#FFFFFF"></path>
        <path d="M121.281859,0 L138.772114,0 L139,0.227513228 L139,2.73015873 L138.772114,2.95767196 L125.269865,2.95767196 C119.477732,2.95767196 115.337844,3.90563426 112.850075,5.8015873 C109.22287,7.75441894 106.526246,11.2808387 104.76012,16.3809524 C104.380308,17.4806051 104.114444,19.1869373 103.962519,21.5 C103.962519,27.396414 106.545202,32.4016549 111.710645,36.515873 C114.673178,38.8668548 119.078931,40.042328 124.928036,40.042328 L138.772114,40.042328 L139,40.2698413 L139,42.7724868 L138.772114,43 L121.281859,43 C117.616673,43 113.704668,41.5590973 109.545727,38.6772487 C105.84256,35.8901977 103.221897,32.06043 101.683658,27.1878307 C101.227884,25.0833228 101,23.6045016 101,22.7513228 L101,20.2486772 C101,16.3619735 102.633167,12.1909394 105.89955,7.73544974 C109.488774,4.00042224 112.755108,1.8011497 115.698651,1.13756614 C117.787617,0.379184921 119.648667,0 121.281859,0 Z" id="Path" fill="#FFFFFF"></path>
        <path d="M122.075472,5 L138.773585,5 L139,5.2260274 L139,7.82534247 L138.773585,8.05136986 L122.188679,8.05136986 C117.698091,8.05136986 114.000015,10.1609378 111.09434,14.380137 C109.735842,16.6027508 109.056604,18.8630022 109.056604,21.1609589 L109.056604,21.8390411 C109.056604,26.1900902 111.132055,29.8818342 115.283019,32.9143836 C117.660389,34.2705547 119.962253,34.9486301 122.188679,34.9486301 L138.773585,34.9486301 L139,35.1746575 L139,37.7739726 L138.773585,38 L121.849057,38 C117.377336,38 113.301905,35.9281029 109.622642,31.7842466 C107.207535,28.6198472 106,25.3424827 106,21.9520548 L106,21.0479452 C106,15.6797677 108.603748,11.1592649 113.811321,7.48630137 C116.622656,5.82875884 119.377345,5 122.075472,5 Z" id="Path" fill="#FFFFFF"></path>
        <path d="M157.699346,8 L159.300654,8 C164.409612,8 168.984729,10.5163147 173.026144,15.5490196 C175.008725,18.8279031 176,21.8779815 176,24.6993464 L176,42.7712418 L175.771242,43 L172.911765,43 L172.683007,42.7712418 L172.683007,25.1568627 C172.683007,20.3147906 170.319196,16.3115627 165.591503,13.1470588 C163.227657,11.9270092 160.978224,11.3169935 158.843137,11.3169935 L158.156863,11.3169935 C153.314791,11.3169935 149.311563,13.6808042 146.147059,18.4084967 C144.927009,20.772343 144.316993,23.0217758 144.316993,25.1568627 L144.316993,25.8431373 C144.316993,30.7042727 146.71893,34.7456266 151.522876,37.9673203 C153.982038,39.1111168 156.193345,39.6830065 158.156863,39.6830065 L158.385621,39.9117647 L158.385621,42.7712418 L158.156863,43 L157.699346,43 C153.810438,43 150.035966,41.3987088 146.375817,38.1960784 C142.791921,34.440613 141,30.4755111 141,26.3006536 L141,24.6993464 C141,19.5903884 143.516315,15.0152708 148.54902,10.9738562 C151.827903,8.99127549 154.877982,8 157.699346,8 Z" id="Path" fill="#FFFFFF"></path>
        <path d="M159.111111,13 C163.833357,13 167.499987,15.5287103 170.111111,20.5862069 C170.703707,22.3103534 171,24.1111017 171,25.9885057 L171,42.7701149 L170.777778,43 L168,43 L167.777778,42.7701149 L167.777778,27.0229885 C167.777778,22.4061072 166.407421,19.3410037 163.666667,17.8275862 C162.240734,16.8314126 160.685194,16.3333333 159,16.3333333 C155.148129,16.3333333 152.370379,18.440592 150.666667,22.6551724 L150.222222,25.4137931 C150.222222,29.3984874 152.259239,32.2720218 156.333333,34.0344828 L158.777778,34.4942529 L158.888889,34.6091954 L158.888889,37.5977011 L158.666667,37.8275862 C154.999982,37.8275862 151.814828,36.0268379 149.111111,32.4252874 C147.703697,30.2413684 147,27.8659132 147,25.2988506 C147,20.4137687 149.44442,16.6207032 154.333333,13.9195402 C156.092601,13.3065103 157.685178,13 159.111111,13 Z" id="Path" fill="#FFFFFF"></path>
        <polygon id="Path" fill="#FFFFFF" points="180.206897 1 182.793103 1 183 1.22702703 183 42.772973 182.793103 43 180.206897 43 180 42.772973 180 1.22702703"></polygon>
        <polygon id="Path" fill="#FFFFFF" points="185.206897 1 187.793103 1 188 1.22702703 188 42.772973 187.793103 43 185.206897 43 185 42.772973 185 1.22702703"></polygon>
        <path d="M208.217105,8 L209.894737,8 C214.070196,8 220.737707,9.9775247 224.8068,17.999909 L221.638158,19.1031921 C219.848675,15.4049165 217.388176,13.4520764 213.809211,12.1176471 C212.262054,11.5838753 210.808121,11.3169935 209.447368,11.3169935 L208.664474,11.3169935 C204.694059,11.3169935 201.189708,13.1470405 198.151316,16.8071895 C196.21271,19.4951115 195.243421,22.2401821 195.243421,25.0424837 L195.243421,25.9575163 C195.243421,30.0179942 197.032877,33.6018363 200.611842,36.7091503 C203.240145,38.691731 205.924328,39.6830065 208.664474,39.6830065 L209.447368,39.6830065 C214.461648,39.6830065 218.487923,37.1285658 221.526316,32.0196078 C221.973686,31.0283175 222.38377,29.8464121 222.756579,28.4738562 L225.776316,28.4738562 C225.925439,28.4738562 226,28.5882342 226,28.8169935 C225.739034,31.543042 224.098699,34.6693723 221.078947,38.1960784 C217.388139,41.3987088 213.660107,43 209.894737,43 L208.217105,43 C204.414455,43 200.686422,41.3224569 197.032895,37.9673203 C193.677615,34.2499814 192,30.3611314 192,26.3006536 L192,24.6993464 C192,19.7810212 194.31138,15.3202815 198.934211,11.3169935 C202.27085,9.10565343 205.365117,8 208.217105,8 Z" id="Path" fill="#FFFFFF"></path>
        <path d="M209.394366,13 C214.014108,13 219.175197,17.3318119 219.810417,19.7330731 L217.156928,20.8246124 L215.704225,19.25 C213.694826,17.320978 211.516444,16.3564815 209.169014,16.3564815 C205.431906,16.3564815 202.652591,18.3626343 200.830986,22.375 C200.530515,23.339511 200.380282,24.2654277 200.380282,25.1527778 L200.380282,25.8472222 C200.380282,29.6473955 202.40843,32.4251455 206.464789,34.1805556 L209.169014,34.6435185 C212.96246,34.6435185 215.779334,32.5987859 217.619718,28.5092593 L220.774648,28.5092593 L220.887324,28.625 L221,28.625 C219.892013,32.13582 218.014098,34.6820909 215.366197,36.2638889 C213.375577,37.4213021 211.30987,38 209.169014,38 C204.136125,38 200.380294,35.3765694 197.901408,30.1296296 C197.300466,28.4899609 197,26.9081866 197,25.3842593 C197,20.3495119 199.591523,16.4915258 204.774648,13.8101852 C206.483577,13.270059 208.023467,13 209.394366,13 Z" id="Path" fill="#FFFFFF"></path>
    </g>
</svg>